<svg width="97" height="97" viewBox="0 0 97 97" fill="none" xmlns="http://www.w3.org/2000/svg">
<path d="M79.3776 36.9409C79.3924 31.8854 78.1657 26.9037 75.8053 22.4331C73.4448 17.9625 70.0228 14.1399 65.8398 11.3009C61.6567 8.46185 56.8406 6.69334 51.8143 6.15062C46.788 5.6079 41.7054 6.30758 37.0127 8.18822C32.3201 10.0689 28.1609 13.0729 24.9006 16.9366C21.6402 20.8003 19.3783 25.4053 18.3136 30.3474C17.2489 35.2895 17.414 40.4175 18.7942 45.2809C20.1744 50.1443 22.7277 54.5944 26.2297 58.2405C30.6316 62.9068 33.0763 69.0835 33.0601 75.4984H63.9385C63.8774 69.1264 66.298 62.9806 70.6881 58.3617C76.267 52.6277 79.3851 44.9411 79.3776 36.9409Z" stroke="black" stroke-width="6" stroke-miterlimit="10"/>
<path d="M33.0625 75.4983H63.9408V83.2179C63.9408 85.2652 63.1275 87.2287 61.6798 88.6764C60.2321 90.1241 58.2686 90.9375 56.2212 90.9375H40.7821C38.7347 90.9375 36.7712 90.1241 35.3235 88.6764C33.8758 87.2287 33.0625 85.2652 33.0625 83.2179V75.4983Z" stroke="black" stroke-width="6" stroke-miterlimit="10"/>
<path d="M2.22266 36.9409H9.90182" stroke="black" stroke-width="6" stroke-miterlimit="10"/>
<path d="M13.7812 6.0625H21.5008" stroke="black" stroke-width="6" stroke-miterlimit="10"/>
<path d="M13.7812 67.7788H21.5008" stroke="black" stroke-width="6" stroke-miterlimit="10"/>
<path d="M94.7768 36.9409H87.0977" stroke="black" stroke-width="6" stroke-miterlimit="10"/>
<path d="M83.2196 67.7788H75.5" stroke="black" stroke-width="6" stroke-miterlimit="10"/>
<path d="M83.2196 6.0625H75.5" stroke="black" stroke-width="6" stroke-miterlimit="10"/>
<path d="M48.4805 25.8743L55.5109 32.9047C58.6947 36.1035 60.4845 40.4316 60.4898 44.9448C60.4952 49.458 58.7157 53.7903 55.5395 56.9967L48.509 64.0271L41.5072 57.0253C38.3011 53.8191 36.4998 49.4706 36.4998 44.9364C36.4998 40.4022 38.3011 36.0537 41.5072 32.8475L48.4805 25.8743Z" stroke="black" stroke-width="6" stroke-miterlimit="10"/>
<path d="M48.5 74.973V40.7805" stroke="black" stroke-width="6" stroke-miterlimit="10"/>
</svg>
