<svg width="14" height="27" viewBox="0 0 14 27" fill="none" xmlns="http://www.w3.org/2000/svg">
<path d="M11.0452 27C11.0452 27 13.5 27 13.5 24.5452V2.4548C13.5 0 11.0452 0 11.0452 0H2.4548C2.4548 0 0 0 0 2.4548V24.5452C0 27 2.4548 27 2.4548 27H11.0452ZM1.22602 2.4548C1.22602 1.86245 1.41061 1.58694 1.77429 1.4051C2.03327 1.27561 2.3198 1.22878 2.45204 1.22878H11.0424C11.1774 1.22878 11.4612 1.27561 11.7202 1.4051C12.0839 1.58694 12.2685 1.8652 12.2685 2.4548V3.06918H1.22602V2.4548ZM1.22602 4.2952H12.2712V20.8644H1.22602V4.2952ZM1.22602 24.5452V22.0904H12.2712V24.5452C12.2712 25.1376 12.0866 25.4131 11.723 25.5949C11.464 25.7244 11.1774 25.7712 11.0452 25.7712H2.4548C2.3198 25.7712 2.03602 25.7244 1.77704 25.5949C1.41061 25.4131 1.22602 25.1376 1.22602 24.5452Z" fill="white"/>
<path d="M8.42842 1.84042H5.07271C4.98179 1.84042 4.91016 1.95889 4.91016 2.11042V2.18206C4.91016 2.33083 4.98454 2.45206 5.07271 2.45206H8.42842C8.51934 2.45206 8.59097 2.33359 8.59097 2.18206V2.11042C8.59097 1.96165 8.51659 1.84042 8.42842 1.84042Z" fill="white"/>
<path d="M5.52344 23.9308C5.52344 24.6085 6.0717 25.1568 6.74946 25.1568C7.42721 25.1568 7.97548 24.6085 7.97548 23.9308C7.97548 23.253 7.42721 22.7048 6.74946 22.7048C6.0717 22.7048 5.52344 23.253 5.52344 23.9308Z" fill="white"/>
</svg>
